
******Shall We Dance.2004.x264.[2]Audio.[13]Sub.mkv.Zen_Bud*******


Format                           : Matroska
File size                        : 1.62 GiB
Duration                         : 1h 42mn
Overall bit rate                 : 2 270 Kbps
Writing application              : HandBrake 0.9.4

Video

Format                           : AVC
Duration                         : 1h 42mn
Bit rate                         : 1 649 Kbps
Width                            : 720 pixels
Height                           : 554 pixels
Display aspect ratio             : 16:9
Stream size                      : 1.17 GiB (73%)
Writing library                  : x264 core 79


Audio #1

Format                           : AC-3
Duration                         : 1h 42mn
Bit rate                         : 448 Kbps
Channel(s)                       : 6 channels
Channel positions                : Front: L C R, Side: L R, LFE
Sampling rate                    : 48.0 KHz
Bit depth                        : 16 bits
Stream size                      : 327 MiB (20%)
Language                         : English

Audio #2

Format                           : MPEG Audio
Codec ID/Hint                    : MP3
Duration                         : 1h 42mn
Bit rate                         : 128 Kbps
Channel(s)                       : 2 channels
Sampling rate                    : 48.0 KHz
Stream size                      : 93.4 MiB (6%)
Language                         : French

Text #3
Language                         : English

Text #2
Language                         : English

Text #3
Language                         : French

Text #4
Language                         : Swedish

Text #5
Language                         : Norwegian

Text #6
Language                         : Danish

Text #7
Language                         : Finnish

Text #8
Language                         : Icelandic

Text #9
Language                         : Portuguese

Text #10
Language                         : Dutch

Text #11
Language                         : Greek

Text #12
Language                         : Bulgarian

Text #13
Language                         : Romanian

Menu
00:00:00.000                     : Chapter 1
00:06:27.600                     : Chapter 2


